<mxfile host="app.diagrams.net" modified="2024-06-18T08:58:01.123Z" agent="Mozilla/5.0 (Macintosh; Intel Mac OS X 10_15_7) AppleWebKit/537.36 (KHTML, like Gecko) Chrome/126.0.0.0 Safari/537.36" etag="QeDmsiwewFI5afW8M633" version="24.5.5" type="github">
  <diagram name="第 1 页" id="OLYgfp5TXsXwXul3KUrM">
    <mxGraphModel dx="2210" dy="1930" grid="1" gridSize="10" guides="1" tooltips="1" connect="1" arrows="1" fold="1" page="1" pageScale="1" pageWidth="827" pageHeight="1169" math="0" shadow="0">
      <root>
        <mxCell id="0" />
        <mxCell id="1" parent="0" />
        <mxCell id="6H85nq_-kugTaHvLwqia-9" value="" style="rounded=0;whiteSpace=wrap;html=1;fontSize=15;fontStyle=1;strokeWidth=3;" vertex="1" parent="1">
          <mxGeometry x="110" width="970" height="490" as="geometry" />
        </mxCell>
        <mxCell id="6H85nq_-kugTaHvLwqia-11" value="" style="group;fontSize=15;fontStyle=1;strokeWidth=3;" vertex="1" connectable="0" parent="1">
          <mxGeometry x="-16.14" width="120" height="490" as="geometry" />
        </mxCell>
        <mxCell id="6H85nq_-kugTaHvLwqia-10" value="" style="rounded=0;whiteSpace=wrap;html=1;fontSize=15;fontStyle=1;strokeWidth=3;" vertex="1" parent="6H85nq_-kugTaHvLwqia-11">
          <mxGeometry width="120" height="490" as="geometry" />
        </mxCell>
        <mxCell id="2" value="IOT设备层" style="whiteSpace=wrap;strokeWidth=3;fontSize=15;fontStyle=1" parent="6H85nq_-kugTaHvLwqia-11" vertex="1">
          <mxGeometry x="5" y="420" width="110" height="44.6064139941691" as="geometry" />
        </mxCell>
        <mxCell id="3" value="数据网关层" style="whiteSpace=wrap;strokeWidth=3;fontSize=15;fontStyle=1" parent="6H85nq_-kugTaHvLwqia-11" vertex="1">
          <mxGeometry x="5" y="310" width="110" height="44.61" as="geometry" />
        </mxCell>
        <mxCell id="4" value="云平台" style="whiteSpace=wrap;strokeWidth=3;fontSize=15;fontStyle=1" parent="6H85nq_-kugTaHvLwqia-11" vertex="1">
          <mxGeometry x="5" y="160" width="110" height="44.61" as="geometry" />
        </mxCell>
        <mxCell id="5" value="应用层" style="whiteSpace=wrap;strokeWidth=3;fontSize=15;fontStyle=1" parent="6H85nq_-kugTaHvLwqia-11" vertex="1">
          <mxGeometry x="5" y="40" width="110" height="44.61" as="geometry" />
        </mxCell>
        <mxCell id="6" value="采集数据" style="curved=1;startArrow=none;endArrow=block;exitX=0.5;exitY=0;exitDx=0;exitDy=0;entryX=0.5;entryY=1;entryDx=0;entryDy=0;fontSize=15;fontStyle=1;strokeWidth=3;" parent="6H85nq_-kugTaHvLwqia-11" source="2" target="3" edge="1">
          <mxGeometry relative="1" as="geometry">
            <Array as="points" />
            <mxPoint x="71.14" y="250" as="targetPoint" />
          </mxGeometry>
        </mxCell>
        <mxCell id="7" value="传输数据" style="curved=1;startArrow=none;endArrow=block;entryX=0.5;entryY=1;entryDx=0;entryDy=0;exitX=0.5;exitY=0;exitDx=0;exitDy=0;fontSize=15;fontStyle=1;strokeWidth=3;" parent="6H85nq_-kugTaHvLwqia-11" source="3" target="4" edge="1">
          <mxGeometry relative="1" as="geometry">
            <Array as="points" />
            <mxPoint x="71.14" y="200" as="sourcePoint" />
          </mxGeometry>
        </mxCell>
        <mxCell id="8" value="处理数据" style="curved=1;startArrow=none;endArrow=block;entryX=0.5;entryY=1;entryDx=0;entryDy=0;exitX=0.5;exitY=0;exitDx=0;exitDy=0;fontSize=15;fontStyle=1;strokeWidth=3;" parent="6H85nq_-kugTaHvLwqia-11" source="4" target="5" edge="1">
          <mxGeometry relative="1" as="geometry">
            <Array as="points" />
            <mxPoint x="71.14" y="100" as="sourcePoint" />
          </mxGeometry>
        </mxCell>
        <mxCell id="6H85nq_-kugTaHvLwqia-12" value="" style="rounded=0;whiteSpace=wrap;html=1;fontSize=15;fontStyle=1;strokeWidth=3;" vertex="1" parent="1">
          <mxGeometry x="120" y="30" width="950" height="60" as="geometry" />
        </mxCell>
        <mxCell id="6H85nq_-kugTaHvLwqia-13" value="" style="rounded=0;whiteSpace=wrap;html=1;fontSize=15;fontStyle=1;strokeWidth=3;" vertex="1" parent="1">
          <mxGeometry x="120" y="100" width="950" height="170" as="geometry" />
        </mxCell>
        <mxCell id="6H85nq_-kugTaHvLwqia-14" value="业务系统" style="rounded=1;whiteSpace=wrap;html=1;fillColor=#dae8fc;strokeColor=#6c8ebf;fontSize=15;fontStyle=1;strokeWidth=3;" vertex="1" parent="1">
          <mxGeometry x="160" y="35" width="370" height="50" as="geometry" />
        </mxCell>
        <mxCell id="6H85nq_-kugTaHvLwqia-15" value="开放平台" style="rounded=1;whiteSpace=wrap;html=1;fillColor=#dae8fc;strokeColor=#6c8ebf;fontSize=15;fontStyle=1;strokeWidth=3;" vertex="1" parent="1">
          <mxGeometry x="700" y="35" width="330" height="50" as="geometry" />
        </mxCell>
        <mxCell id="6H85nq_-kugTaHvLwqia-16" value="&lt;font style=&quot;font-size: 15px;&quot; face=&quot;Verdana&quot;&gt;&lt;span style=&quot;font-size: 15px;&quot;&gt;针对数据网关层实际上报的数据，根据业务场景提供服务&lt;/span&gt;&lt;/font&gt;" style="text;html=1;align=center;verticalAlign=middle;resizable=0;points=[];autosize=1;strokeColor=none;fillColor=none;fontFamily=Helvetica;fontSize=15;fontStyle=1;strokeWidth=3;" vertex="1" parent="1">
          <mxGeometry x="374" y="100" width="400" height="30" as="geometry" />
        </mxCell>
        <mxCell id="6H85nq_-kugTaHvLwqia-24" value="" style="group;fontSize=15;fontStyle=1;strokeWidth=3;" vertex="1" connectable="0" parent="1">
          <mxGeometry x="130" y="130" width="930" height="50" as="geometry" />
        </mxCell>
        <mxCell id="6H85nq_-kugTaHvLwqia-17" value="数据处理" style="rounded=1;whiteSpace=wrap;html=1;fontSize=15;fontStyle=1;strokeWidth=3;" vertex="1" parent="6H85nq_-kugTaHvLwqia-24">
          <mxGeometry width="121.30434782608697" height="50" as="geometry" />
        </mxCell>
        <mxCell id="6H85nq_-kugTaHvLwqia-19" value="消息处理" style="rounded=1;whiteSpace=wrap;html=1;fontSize=15;fontStyle=1;strokeWidth=3;" vertex="1" parent="6H85nq_-kugTaHvLwqia-24">
          <mxGeometry x="165.7826086956522" width="121.30434782608697" height="50" as="geometry" />
        </mxCell>
        <mxCell id="6H85nq_-kugTaHvLwqia-20" value="AI数据分析" style="rounded=1;whiteSpace=wrap;html=1;fontSize=15;fontStyle=1;strokeWidth=3;" vertex="1" parent="6H85nq_-kugTaHvLwqia-24">
          <mxGeometry x="333.5869565217391" width="121.30434782608697" height="50" as="geometry" />
        </mxCell>
        <mxCell id="6H85nq_-kugTaHvLwqia-21" value="数据安全隔离" style="rounded=1;whiteSpace=wrap;html=1;fontSize=15;fontStyle=1;strokeWidth=3;" vertex="1" parent="6H85nq_-kugTaHvLwqia-24">
          <mxGeometry x="489.26086956521743" width="121.30434782608697" height="50" as="geometry" />
        </mxCell>
        <mxCell id="6H85nq_-kugTaHvLwqia-22" value="业务服务" style="rounded=1;whiteSpace=wrap;html=1;fontSize=15;fontStyle=1;strokeWidth=3;" vertex="1" parent="6H85nq_-kugTaHvLwqia-24">
          <mxGeometry x="646.9565217391305" width="121.30434782608697" height="50" as="geometry" />
        </mxCell>
        <mxCell id="6H85nq_-kugTaHvLwqia-23" value="统一接入" style="rounded=1;whiteSpace=wrap;html=1;fontSize=15;fontStyle=1;strokeWidth=3;" vertex="1" parent="6H85nq_-kugTaHvLwqia-24">
          <mxGeometry x="808.6956521739131" width="121.30434782608697" height="50" as="geometry" />
        </mxCell>
        <mxCell id="6H85nq_-kugTaHvLwqia-25" value="" style="group;fontSize=15;fontStyle=1;strokeWidth=3;" vertex="1" connectable="0" parent="1">
          <mxGeometry x="130" y="200" width="930" height="50" as="geometry" />
        </mxCell>
        <mxCell id="6H85nq_-kugTaHvLwqia-26" value="权限管理" style="rounded=1;whiteSpace=wrap;html=1;fontSize=15;fontStyle=1;strokeWidth=3;" vertex="1" parent="6H85nq_-kugTaHvLwqia-25">
          <mxGeometry width="121.30434782608697" height="50" as="geometry" />
        </mxCell>
        <mxCell id="6H85nq_-kugTaHvLwqia-27" value="大屏可视化" style="rounded=1;whiteSpace=wrap;html=1;fontSize=15;fontStyle=1;strokeWidth=3;" vertex="1" parent="6H85nq_-kugTaHvLwqia-25">
          <mxGeometry x="165.7826086956522" width="121.30434782608697" height="50" as="geometry" />
        </mxCell>
        <mxCell id="6H85nq_-kugTaHvLwqia-28" value="接入设备调试" style="rounded=1;whiteSpace=wrap;html=1;fontSize=15;fontStyle=1;strokeWidth=3;" vertex="1" parent="6H85nq_-kugTaHvLwqia-25">
          <mxGeometry x="333.5869565217391" width="121.30434782608697" height="50" as="geometry" />
        </mxCell>
        <mxCell id="6H85nq_-kugTaHvLwqia-29" value="多设备数据聚合" style="rounded=1;whiteSpace=wrap;html=1;fontSize=15;fontStyle=1;strokeWidth=3;" vertex="1" parent="6H85nq_-kugTaHvLwqia-25">
          <mxGeometry x="489.26086956521743" width="121.30434782608697" height="50" as="geometry" />
        </mxCell>
        <mxCell id="6H85nq_-kugTaHvLwqia-30" value="区块链" style="rounded=1;whiteSpace=wrap;html=1;fontSize=15;fontStyle=1;strokeWidth=3;" vertex="1" parent="6H85nq_-kugTaHvLwqia-25">
          <mxGeometry x="646.9565217391305" width="121.30434782608697" height="50" as="geometry" />
        </mxCell>
        <mxCell id="6H85nq_-kugTaHvLwqia-31" value="设备日志" style="rounded=1;whiteSpace=wrap;html=1;fontSize=15;fontStyle=1;strokeWidth=3;" vertex="1" parent="6H85nq_-kugTaHvLwqia-25">
          <mxGeometry x="808.6956521739131" width="121.30434782608697" height="50" as="geometry" />
        </mxCell>
        <mxCell id="6H85nq_-kugTaHvLwqia-33" value="" style="rounded=0;whiteSpace=wrap;html=1;fontSize=15;fontStyle=1;strokeWidth=3;" vertex="1" parent="1">
          <mxGeometry x="120" y="280" width="950" height="120" as="geometry" />
        </mxCell>
        <mxCell id="6H85nq_-kugTaHvLwqia-45" value="" style="rounded=0;whiteSpace=wrap;html=1;fontSize=15;fontStyle=1;strokeWidth=3;" vertex="1" parent="1">
          <mxGeometry x="120" y="410" width="950" height="70" as="geometry" />
        </mxCell>
        <mxCell id="6H85nq_-kugTaHvLwqia-52" value="" style="group;fontSize=15;fontStyle=1;strokeWidth=3;" vertex="1" connectable="0" parent="1">
          <mxGeometry x="131" y="417.5" width="929" height="55" as="geometry" />
        </mxCell>
        <mxCell id="6H85nq_-kugTaHvLwqia-46" value="传感器设备" style="rounded=1;whiteSpace=wrap;html=1;fontSize=15;fontStyle=1;strokeWidth=3;" vertex="1" parent="6H85nq_-kugTaHvLwqia-52">
          <mxGeometry width="124.00444938820911" height="55" as="geometry" />
        </mxCell>
        <mxCell id="6H85nq_-kugTaHvLwqia-47" value="IPC设备" style="rounded=1;whiteSpace=wrap;html=1;fontSize=15;fontStyle=1;strokeWidth=3;" vertex="1" parent="6H85nq_-kugTaHvLwqia-52">
          <mxGeometry x="161.20578420467183" width="124.00444938820911" height="55" as="geometry" />
        </mxCell>
        <mxCell id="6H85nq_-kugTaHvLwqia-48" value="无线电设备" style="rounded=1;whiteSpace=wrap;html=1;fontSize=15;fontStyle=1;strokeWidth=3;" vertex="1" parent="6H85nq_-kugTaHvLwqia-52">
          <mxGeometry x="322.41156840934366" width="124.00444938820911" height="55" as="geometry" />
        </mxCell>
        <mxCell id="6H85nq_-kugTaHvLwqia-49" value="路由器设备" style="rounded=1;whiteSpace=wrap;html=1;fontSize=15;fontStyle=1;strokeWidth=3;" vertex="1" parent="6H85nq_-kugTaHvLwqia-52">
          <mxGeometry x="482.58398220244715" width="124.00444938820911" height="55" as="geometry" />
        </mxCell>
        <mxCell id="6H85nq_-kugTaHvLwqia-50" value="摄像头设备" style="rounded=1;whiteSpace=wrap;html=1;fontSize=15;fontStyle=1;strokeWidth=3;" vertex="1" parent="6H85nq_-kugTaHvLwqia-52">
          <mxGeometry x="643.7897664071189" width="124.00444938820911" height="55" as="geometry" />
        </mxCell>
        <mxCell id="6H85nq_-kugTaHvLwqia-51" value="移动便携设备" style="rounded=1;whiteSpace=wrap;html=1;fontSize=15;fontStyle=1;strokeWidth=3;" vertex="1" parent="6H85nq_-kugTaHvLwqia-52">
          <mxGeometry x="804.9955506117908" width="124.00444938820911" height="55" as="geometry" />
        </mxCell>
        <mxCell id="6H85nq_-kugTaHvLwqia-53" value="" style="group" vertex="1" connectable="0" parent="1">
          <mxGeometry x="605" y="290" width="455" height="100" as="geometry" />
        </mxCell>
        <mxCell id="6H85nq_-kugTaHvLwqia-39" value="" style="rounded=1;whiteSpace=wrap;html=1;fontSize=15;fontStyle=1;strokeWidth=3;" vertex="1" parent="6H85nq_-kugTaHvLwqia-53">
          <mxGeometry width="455" height="100" as="geometry" />
        </mxCell>
        <mxCell id="6H85nq_-kugTaHvLwqia-40" value="协议网关" style="text;html=1;align=center;verticalAlign=middle;resizable=0;points=[];autosize=1;strokeColor=none;fillColor=none;fontSize=15;fontStyle=1;strokeWidth=3;" vertex="1" parent="6H85nq_-kugTaHvLwqia-53">
          <mxGeometry x="200" width="80" height="30" as="geometry" />
        </mxCell>
        <mxCell id="6H85nq_-kugTaHvLwqia-41" value="MQTT" style="rounded=1;whiteSpace=wrap;html=1;fontSize=15;fontStyle=1;strokeWidth=3;" vertex="1" parent="6H85nq_-kugTaHvLwqia-53">
          <mxGeometry x="14" y="30" width="120" height="50" as="geometry" />
        </mxCell>
        <mxCell id="6H85nq_-kugTaHvLwqia-42" value="NB-IOT" style="rounded=1;whiteSpace=wrap;html=1;fontSize=15;fontStyle=1;strokeWidth=3;" vertex="1" parent="6H85nq_-kugTaHvLwqia-53">
          <mxGeometry x="173" y="30" width="120" height="50" as="geometry" />
        </mxCell>
        <mxCell id="6H85nq_-kugTaHvLwqia-43" value="CoAP" style="rounded=1;whiteSpace=wrap;html=1;fontSize=15;fontStyle=1;strokeWidth=3;" vertex="1" parent="6H85nq_-kugTaHvLwqia-53">
          <mxGeometry x="325" y="30" width="120" height="50" as="geometry" />
        </mxCell>
        <mxCell id="6H85nq_-kugTaHvLwqia-54" value="" style="group" vertex="1" connectable="0" parent="1">
          <mxGeometry x="131" y="290" width="469" height="100" as="geometry" />
        </mxCell>
        <mxCell id="6H85nq_-kugTaHvLwqia-34" value="" style="rounded=1;whiteSpace=wrap;html=1;fontSize=15;fontStyle=1;strokeWidth=3;" vertex="1" parent="6H85nq_-kugTaHvLwqia-54">
          <mxGeometry width="469.0000000000001" height="100" as="geometry" />
        </mxCell>
        <mxCell id="6H85nq_-kugTaHvLwqia-35" value="硬件网关" style="text;html=1;align=center;verticalAlign=middle;resizable=0;points=[];autosize=1;strokeColor=none;fillColor=none;fontSize=15;fontStyle=1;strokeWidth=3;" vertex="1" parent="6H85nq_-kugTaHvLwqia-54">
          <mxGeometry x="189.72673031026255" width="80" height="30" as="geometry" />
        </mxCell>
        <mxCell id="6H85nq_-kugTaHvLwqia-36" value="工业智能网关" style="rounded=1;whiteSpace=wrap;html=1;fontSize=15;fontStyle=1;strokeWidth=3;" vertex="1" parent="6H85nq_-kugTaHvLwqia-54">
          <mxGeometry x="10.073985680190933" y="30" width="134.31980906921243" height="50" as="geometry" />
        </mxCell>
        <mxCell id="6H85nq_-kugTaHvLwqia-37" value="边缘计算网关" style="rounded=1;whiteSpace=wrap;html=1;fontSize=15;fontStyle=1;strokeWidth=3;" vertex="1" parent="6H85nq_-kugTaHvLwqia-54">
          <mxGeometry x="172.37708830548928" y="30" width="134.31980906921243" height="50" as="geometry" />
        </mxCell>
        <mxCell id="6H85nq_-kugTaHvLwqia-38" value="..." style="rounded=1;whiteSpace=wrap;html=1;fontSize=15;fontStyle=1;strokeWidth=3;" vertex="1" parent="6H85nq_-kugTaHvLwqia-54">
          <mxGeometry x="345.87" y="30" width="104.13" height="50" as="geometry" />
        </mxCell>
      </root>
    </mxGraphModel>
  </diagram>
</mxfile>
